HIERARCHY
ROOT Hips
{
	OFFSET 0.000000 103.266502 0.000000
	CHANNELS 6 Xposition Yposition Zposition Xrotation Yrotation Zrotation 
	JOINT Spine
	{
		OFFSET -0.002400 12.777504 0.315300
		CHANNELS 3 Xrotation Yrotation Zrotation
		JOINT Spine1
		{
			OFFSET -0.002067 5.816869 0.032633
			CHANNELS 3 Xrotation Yrotation Zrotation
			JOINT Spine1_split
			{
				OFFSET -0.002067 5.816869 0.032633
				CHANNELS 3 Xrotation Yrotation Zrotation
				JOINT Spine2
				{
					OFFSET -0.002067 5.816869 0.032633
					CHANNELS 3 Xrotation Yrotation Zrotation
					JOINT Neck
					{
						OFFSET -0.003700 21.199493 -0.826900
						CHANNELS 3 Xrotation Yrotation Zrotation
						JOINT Head
						{
							OFFSET 0.000000 20.442200 4.834800
							CHANNELS 3 Xrotation Yrotation Zrotation
							JOINT HeadTop_End
							{
								OFFSET 0.000000 34.668396 4.968400
								CHANNELS 3 Xrotation Yrotation Zrotation
								End Site
								{
									OFFSET 0.000000 0.000000 0.000000
								}
							}
						}
					}
					JOINT LeftShoulder
					{
						OFFSET 3.288150 8.794197 -1.372250
						CHANNELS 3 Xrotation Yrotation Zrotation
						JOINT LeftShoulder_split
						{
							OFFSET 3.288150 8.794197 -1.372250
							CHANNELS 3 Xrotation Yrotation Zrotation
							JOINT LeftArm
							{
								OFFSET 11.953299 -2.279007 -0.146200
								CHANNELS 3 Xrotation Yrotation Zrotation
								JOINT LeftForeArm
								{
									OFFSET 18.448900 0.000000 0.000000
									CHANNELS 3 Xrotation Yrotation Zrotation
									JOINT LeftHand
									{
										OFFSET 29.527798 0.000000 0.000000
										CHANNELS 3 Xrotation Yrotation Zrotation
										JOINT LeftHandThumb1
										{
											OFFSET 10.739754 -2.369614 9.225399
											CHANNELS 3 Xrotation Yrotation Zrotation
											JOINT LeftHandThumb2
											{
												OFFSET 4.926170 -2.844131 2.844125
												CHANNELS 3 Xrotation Yrotation Zrotation
												JOINT LeftHandThumb3
												{
													OFFSET 4.614891 -2.664413 2.664409
													CHANNELS 3 Xrotation Yrotation Zrotation
													JOINT LeftHandThumb4
													{
														OFFSET 4.432465 -2.559082 2.559083
														CHANNELS 3 Xrotation Yrotation Zrotation
														End Site
														{
															OFFSET 0.000000 0.000000 0.000000
														}
													}
												}
											}
										}
										JOINT LeftHandIndex1
										{
											OFFSET 26.467674 0.187653 6.405298
											CHANNELS 3 Xrotation Yrotation Zrotation
											JOINT LeftHandIndex2
											{
												OFFSET 8.792900 0.000000 0.000000
												CHANNELS 3 Xrotation Yrotation Zrotation
												JOINT LeftHandIndex3
												{
													OFFSET 10.075203 0.000000 0.000000
													CHANNELS 3 Xrotation Yrotation Zrotation
													End Site
													{
														OFFSET 0.000000 0.000000 0.000000
													}
												}
											}
										}
										JOINT LeftHandMiddle1
										{
											OFFSET 25.764404 0.000000 0.000000
											CHANNELS 3 Xrotation Yrotation Zrotation
											JOINT LeftHandMiddle2
											{
												OFFSET 9.393974 0.000000 0.000000
												CHANNELS 3 Xrotation Yrotation Zrotation
												JOINT LeftHandMiddle3
												{
													OFFSET 10.771950 0.000000 0.000000
													CHANNELS 3 Xrotation Yrotation Zrotation
													End Site
													{
														OFFSET 0.000000 0.000000 0.000000
													}
												}
											}
										}
										JOINT LeftHandRing1
										{
											OFFSET 24.660927 0.144547 -6.225808
											CHANNELS 3 Xrotation Yrotation Zrotation
											JOINT LeftHandRing2
											{
												OFFSET 9.393799 0.000000 0.000000
												CHANNELS 3 Xrotation Yrotation Zrotation
												JOINT LeftHandRing3
												{
													OFFSET 9.928497 0.000000 0.000000
													CHANNELS 3 Xrotation Yrotation Zrotation
													End Site
													{
														OFFSET 0.000000 0.000000 0.000000
													}
												}
											}
										}
										JOINT LeftHandPinky1
										{
											OFFSET 23.655350 0.125290 -12.815412
											CHANNELS 3 Xrotation Yrotation Zrotation
											JOINT LeftHandPinky2
											{
												OFFSET 8.425102 0.000000 0.000000
												CHANNELS 3 Xrotation Yrotation Zrotation
												JOINT LeftHandPinky3
												{
													OFFSET 8.147003 0.000000 0.000000
													CHANNELS 3 Xrotation Yrotation Zrotation
													End Site
													{
														OFFSET 0.000000 0.000000 0.000000
													}
												}
											}
										}
									}
								}
							}
						}
					}
					JOINT RightShoulder
					{
						OFFSET -3.249400 8.794197 -1.372250
						CHANNELS 3 Xrotation Yrotation Zrotation
						JOINT RightShoulder_split
						{
							OFFSET -3.249400 8.794197 -1.372250
							CHANNELS 3 Xrotation Yrotation Zrotation
							JOINT RightArm
							{
								OFFSET -11.953299 -2.279007 -0.146200
								CHANNELS 3 Xrotation Yrotation Zrotation
								JOINT RightForeArm
								{
									OFFSET -18.448900 0.000000 0.000000
									CHANNELS 3 Xrotation Yrotation Zrotation
									JOINT RightHand
									{
										OFFSET -29.527802 0.000000 0.000000
										CHANNELS 3 Xrotation Yrotation Zrotation
										JOINT RightHandThumb1
										{
											OFFSET -10.739754 -2.369614 9.225399
											CHANNELS 3 Xrotation Yrotation Zrotation
											JOINT RightHandThumb2
											{
												OFFSET -4.926170 -2.844131 2.844125
												CHANNELS 3 Xrotation Yrotation Zrotation
												JOINT RightHandThumb3
												{
													OFFSET -4.614891 -2.664413 2.664409
													CHANNELS 3 Xrotation Yrotation Zrotation
													JOINT RightHandThumb4
													{
														OFFSET -4.432465 -2.559082 2.559083
														CHANNELS 3 Xrotation Yrotation Zrotation
														End Site
														{
															OFFSET 0.000000 0.000000 0.000000
														}
													}
												}
											}
										}
										JOINT RightHandIndex1
										{
											OFFSET -26.467674 0.187653 6.405298
											CHANNELS 3 Xrotation Yrotation Zrotation
											JOINT RightHandIndex2
											{
												OFFSET -8.792900 0.000000 0.000000
												CHANNELS 3 Xrotation Yrotation Zrotation
												JOINT RightHandIndex3
												{
													OFFSET -10.075203 0.000000 0.000000
													CHANNELS 3 Xrotation Yrotation Zrotation
													End Site
													{
														OFFSET 0.000000 0.000000 0.000000
													}
												}
											}
										}
										JOINT RightHandMiddle1
										{
											OFFSET -25.764404 0.000000 0.000000
											CHANNELS 3 Xrotation Yrotation Zrotation
											JOINT RightHandMiddle2
											{
												OFFSET -9.393974 0.000000 0.000000
												CHANNELS 3 Xrotation Yrotation Zrotation
												JOINT RightHandMiddle3
												{
													OFFSET -10.771950 0.000000 0.000000
													CHANNELS 3 Xrotation Yrotation Zrotation
													End Site
													{
														OFFSET 0.000000 0.000000 0.000000
													}
												}
											}
										}
										JOINT RightHandRing1
										{
											OFFSET -24.660927 0.144547 -6.225808
											CHANNELS 3 Xrotation Yrotation Zrotation
											JOINT RightHandRing2
											{
												OFFSET -9.393799 0.000000 0.000000
												CHANNELS 3 Xrotation Yrotation Zrotation
												JOINT RightHandRing3
												{
													OFFSET -9.928497 0.000000 0.000000
													CHANNELS 3 Xrotation Yrotation Zrotation
													End Site
													{
														OFFSET 0.000000 0.000000 0.000000
													}
												}
											}
										}
										JOINT RightHandPinky1
										{
											OFFSET -23.655350 0.125290 -12.815412
											CHANNELS 3 Xrotation Yrotation Zrotation
											JOINT RightHandPinky2
											{
												OFFSET -8.425102 0.000000 0.000000
												CHANNELS 3 Xrotation Yrotation Zrotation
												JOINT RightHandPinky3
												{
													OFFSET -8.147003 0.000000 0.000000
													CHANNELS 3 Xrotation Yrotation Zrotation
													End Site
													{
														OFFSET 0.000000 0.000000 0.000000
													}
												}
											}
										}
									}
								}
							}
						}
					}
				}
			}
		}
	}
	JOINT LeftUpLeg
	{
		OFFSET 11.394100 -6.187798 -0.413800
		CHANNELS 3 Xrotation Yrotation Zrotation
		JOINT LeftLeg
		{
			OFFSET 0.430247 -32.302673 3.732800
			CHANNELS 3 Xrotation Yrotation Zrotation
			JOINT LeftFoot
			{
				OFFSET -0.430247 -48.264931 -6.423300
				CHANNELS 3 Xrotation Yrotation Zrotation
				JOINT LeftToeBase
				{
					OFFSET 4.230900 -16.068199 23.438400
					CHANNELS 3 Xrotation Yrotation Zrotation
					JOINT LeftToe_End
					{
						OFFSET 4.510700 0.695400 19.974600
						CHANNELS 3 Xrotation Yrotation Zrotation
						End Site
						{
							OFFSET 0.000000 0.000000 0.000000
						}
					}
				}
			}
		}
	}
	JOINT RightUpLeg
	{
		OFFSET -11.333700 -6.187798 -0.413800
		CHANNELS 3 Xrotation Yrotation Zrotation
		JOINT RightLeg
		{
			OFFSET -0.430392 -32.302628 3.733000
			CHANNELS 3 Xrotation Yrotation Zrotation
			JOINT RightFoot
			{
				OFFSET 0.430392 -48.264973 -6.423500
				CHANNELS 3 Xrotation Yrotation Zrotation
				JOINT RightToeBase
				{
					OFFSET -4.230900 -16.068199 23.438400
					CHANNELS 3 Xrotation Yrotation Zrotation
					JOINT RightToe_End
					{
						OFFSET -4.510700 0.695400 19.974600
						CHANNELS 3 Xrotation Yrotation Zrotation
						End Site
						{
							OFFSET 0.000000 0.000000 0.000000
						}
					}
				}
			}
		}
	}
}
MOTION
Frames: 5
Frame Time: 0.016667
-0.065676 85.303543 -0.139522 -5.398869 -46.271366 -0.212058 9.456606 7.225491 -1.652080 2.187716 0.989897 -0.915631 0.000000 0.000000 0.000000 2.202829 0.982769 -0.894153 0.084650 13.220557 4.538678 8.920925 20.138142 -4.130235 -0.000000 -0.000000 -0.000001 1.117176 3.546346 -8.633309 0.000000 0.000000 0.000000 -53.487017 4.935507 -51.503004 0.000118 -106.358080 0.000104 1.988601 -7.706158 -15.869241 -6.141210 -11.690806 -6.761695 9.914115 42.595525 3.409848 -0.422813 8.108091 27.509108 -0.000000 0.000002 -0.000003 0.255309 3.378218 -45.814337 5.654084 5.847763 -88.067455 -0.000001 -0.000000 0.000000 -0.461477 3.841591 -39.722676 6.450747 5.820354 -95.892857 0.000005 0.000003 -0.000001 0.469721 4.966826 -39.799454 8.181047 5.368619 -113.502991 0.000000 -0.000001 -0.000000 -3.762433 9.063699 -45.253821 5.342536 5.829001 -85.005317 0.000004 -0.000002 0.000001 3.036129 13.027197 -5.371406 0.000000 0.000000 0.000000 -48.713712 27.172827 83.457071 -0.000004 105.988266 -0.000007 -8.345362 17.548100 8.775666 -7.341087 13.749663 7.412323 9.855763 -44.489103 -3.903253 -0.115783 -14.513066 -28.973874 0.000000 0.000002 -0.000001 -0.124375 -2.384788 45.108861 4.500582 -4.654539 88.071157 0.000001 0.000001 0.000001 -0.761624 -2.932905 39.031061 5.133884 -4.632756 95.881629 0.000003 0.000001 0.000000 0.154759 -4.068817 39.122658 6.509735 -4.273599 113.462877 -0.000000 0.000000 0.000001 -4.198876 -8.025512 44.637769 4.252915 -4.639631 85.014839 0.000000 0.000000 0.000003 -38.933516 5.287439 17.886068 58.809800 -5.660317 4.384339 -17.445942 -8.502686 -15.880106 -1.594038 -0.000007 0.000001 0.000000 0.000002 -0.000000 -29.905437 -7.026631 -29.148621 58.363987 -9.468498 -7.709929 -19.429253 -5.380409 23.113876 -0.013000 -0.000009 0.000001 0.000000 0.000001 0.000000 
-0.172835 85.130058 0.456032 -5.368617 -46.091561 -0.008753 9.611621 7.266669 -1.819627 2.382867 1.109456 -1.073439 0.000000 0.000000 0.000000 2.401568 1.100690 -1.045855 -0.057995 13.152760 4.536978 8.891156 19.766188 -3.891123 -0.000000 -0.000000 0.000000 1.183349 3.599429 -8.974602 0.000000 0.000000 0.000000 -53.425504 4.522206 -51.883763 0.000219 -105.213812 0.000228 2.694939 -6.785469 -16.625763 -6.141212 -11.690809 -6.761693 9.914117 42.595519 3.409851 -0.422812 8.108089 27.509108 0.000005 -0.000001 0.000003 0.255308 3.378216 -45.814337 5.654082 5.847763 -88.067448 0.000002 -0.000003 -0.000000 -0.461480 3.841589 -39.722679 6.450746 5.820355 -95.892864 0.000002 -0.000002 -0.000000 0.469718 4.966826 -39.799451 8.181046 5.368620 -113.502991 0.000000 0.000001 0.000000 -3.762436 9.063701 -45.253818 5.342536 5.829000 -85.005317 -0.000001 -0.000001 -0.000001 3.025164 12.911341 -5.539061 0.000000 0.000000 0.000000 -48.147926 26.895816 84.263559 0.000286 105.577164 -0.000270 -8.085389 17.722239 8.888141 -7.341088 13.749666 7.412323 9.855769 -44.489107 -3.903249 -0.115789 -14.513068 -28.973871 0.000001 -0.000002 -0.000000 -0.124374 -2.384785 45.108861 4.500586 -4.654539 88.071157 0.000000 -0.000001 -0.000000 -0.761624 -2.932904 39.031068 5.133883 -4.632761 95.881629 -0.000001 -0.000001 0.000003 0.154759 -4.068815 39.122661 6.509732 -4.273601 113.462870 -0.000001 0.000000 0.000000 -4.198875 -8.025512 44.637769 4.252915 -4.639632 85.014846 0.000002 0.000002 0.000003 -38.975628 5.434009 17.768546 59.417994 -5.458082 4.185100 -18.049313 -8.951404 -15.661453 -1.584877 -0.000014 0.000001 -0.000000 -0.000003 -0.000000 -29.926576 -6.937751 -29.693377 58.837831 -9.904329 -7.796346 -19.750487 -5.135244 22.775793 -0.247715 0.000027 -0.000001 0.000000 0.000001 -0.000000 
-0.300826 85.116867 0.996649 -5.134917 -45.749980 0.327776 9.725301 7.306947 -1.959223 2.523092 1.222474 -1.220269 0.000000 0.000000 0.000000 2.544996 1.213391 -1.187302 -0.119668 13.073317 4.516061 8.975797 19.311223 -3.677644 -0.000000 -0.000000 0.000000 1.271897 3.450429 -9.352721 0.000000 0.000000 0.000000 -53.737698 4.019010 -51.821045 0.000171 -104.376185 0.000164 3.364573 -5.538217 -17.414110 -6.141211 -11.690806 -6.761693 9.914122 42.595525 3.409854 -0.422815 8.108086 27.509108 0.000002 0.000003 0.000000 0.255312 3.378219 -45.814337 5.654087 5.847760 -88.067455 0.000002 0.000000 0.000001 -0.461478 3.841593 -39.722679 6.450749 5.820353 -95.892864 0.000001 0.000000 -0.000001 0.469722 4.966827 -39.799454 8.181046 5.368621 -113.502991 0.000000 -0.000000 0.000001 -3.762431 9.063699 -45.253825 5.342537 5.829003 -85.005317 -0.000001 0.000000 -0.000002 3.009249 12.882599 -5.845509 0.000000 0.000000 0.000000 -47.901780 26.454238 85.051653 0.000043 105.041821 -0.000051 -8.061768 17.824014 9.078435 -7.341089 13.749663 7.412322 9.855764 -44.489100 -3.903254 -0.115785 -14.513068 -28.973871 0.000000 0.000002 -0.000001 -0.124376 -2.384787 45.108864 4.500586 -4.654537 88.071150 0.000001 -0.000003 0.000002 -0.761625 -2.932906 39.031055 5.133885 -4.632759 95.881629 -0.000000 0.000001 0.000000 0.154759 -4.068815 39.122658 6.509730 -4.273601 113.462877 0.000001 -0.000001 -0.000000 -4.198876 -8.025513 44.637769 4.252918 -4.639631 85.014846 0.000000 -0.000001 0.000001 -38.986187 5.632215 17.676943 59.598216 -5.295632 3.947077 -18.440741 -9.568958 -15.439450 -1.565028 0.000010 0.000004 -0.000000 -0.000000 -0.000000 -30.152222 -6.966498 -30.148014 59.350034 -10.631132 -7.834099 -20.062540 -4.759651 21.722920 -0.837864 -0.000028 -0.000007 0.000000 -0.000000 0.000001 
-0.450103 85.266396 1.469493 -4.688489 -45.273622 0.772407 9.785591 7.345867 -2.060207 2.594240 1.326381 -1.342159 0.000000 0.000000 0.000000 2.618629 1.318488 -1.304864 -0.089431 12.994041 4.472784 9.137169 18.829718 -3.485250 -0.000001 -0.000000 0.000001 1.361010 3.142969 -9.684682 0.000000 0.000000 0.000000 -54.368500 3.505235 -51.369914 -0.000020 -103.901787 -0.000019 3.892656 -4.154469 -18.243951 -6.141212 -11.690802 -6.761692 9.914123 42.595519 3.409852 -0.422812 8.108090 27.509106 0.000003 0.000003 -0.000002 0.255309 3.378219 -45.814337 5.654083 5.847762 -88.067455 -0.000003 0.000000 0.000001 -0.461479 3.841592 -39.722679 6.450750 5.820353 -95.892857 0.000001 0.000001 0.000000 0.469721 4.966829 -39.799447 8.181043 5.368621 -113.502991 -0.000001 0.000001 0.000002 -3.762434 9.063699 -45.253821 5.342537 5.829001 -85.005311 0.000001 -0.000001 -0.000002 2.995731 13.013997 -6.195494 0.000000 0.000000 0.000000 -48.018139 25.955451 85.661979 0.000101 104.429583 -0.000124 -8.242440 17.789052 9.105799 -7.341091 13.749667 7.412314 9.855769 -44.489100 -3.903252 -0.115784 -14.513071 -28.973867 0.000002 -0.000001 0.000000 -0.124375 -2.384784 45.108861 4.500585 -4.654538 88.071157 -0.000002 -0.000002 0.000001 -0.761625 -2.932904 39.031055 5.133883 -4.632761 95.881629 -0.000000 -0.000005 -0.000001 0.154757 -4.068820 39.122658 6.509733 -4.273600 113.462870 0.000000 -0.000002 -0.000000 -4.198876 -8.025508 44.637766 4.252916 -4.639633 85.014839 0.000001 0.000002 0.000001 -38.974398 5.853747 17.610005 59.356181 -5.178415 3.699857 -18.618787 -10.288516 -15.230099 -1.534999 -0.000009 -0.000004 0.000000 -0.000000 -0.000000 -30.606549 -6.779750 -30.775528 59.988834 -10.819939 -7.715308 -19.291197 -4.440292 21.394220 -1.583684 -0.000006 -0.000002 -0.000000 -0.000001 0.000000 
-0.623343 85.564888 1.859342 -4.047305 -44.693927 1.292887 9.790294 7.384713 -2.122010 2.594818 1.422008 -1.430865 0.000000 0.000000 0.000000 2.620825 1.416632 -1.390368 0.028426 12.927951 4.403647 9.333208 18.379035 -3.294512 -0.000001 -0.000000 0.000000 1.435831 2.731608 -9.918553 0.000000 0.000000 0.000000 -55.296429 3.055671 -50.600773 -0.000146 -103.799191 -0.000134 4.177174 -2.832606 -19.095638 -6.141213 -11.690806 -6.761696 9.914123 42.595522 3.409851 -0.422806 8.108089 27.509108 -0.000000 -0.000000 0.000002 0.255309 3.378213 -45.814334 5.654088 5.847763 -88.067455 0.000000 0.000001 0.000001 -0.461480 3.841589 -39.722679 6.450747 5.820356 -95.892864 0.000001 0.000001 0.000001 0.469721 4.966826 -39.799451 8.181046 5.368621 -113.502991 0.000000 -0.000001 0.000001 -3.762434 9.063697 -45.253821 5.342537 5.829001 -85.005317 -0.000001 -0.000000 -0.000001 2.991140 13.365056 -6.522554 0.000000 0.000000 0.000000 -48.525817 25.458803 85.967343 -0.000084 103.774582 0.000069 -8.531701 17.661739 8.805723 -7.341088 13.749666 7.412320 9.855765 -44.489107 -3.903248 -0.115783 -14.513069 -28.973874 0.000000 -0.000002 -0.000002 -0.124375 -2.384785 45.108857 4.500585 -4.654537 88.071150 0.000000 0.000002 0.000001 -0.761626 -2.932905 39.031055 5.133883 -4.632762 95.881629 0.000001 0.000000 -0.000001 0.154758 -4.068818 39.122661 6.509737 -4.273600 113.462870 0.000001 0.000001 -0.000000 -4.198876 -8.025512 44.637766 4.252913 -4.639634 85.014839 -0.000000 0.000000 0.000002 -38.946418 6.075851 17.563116 58.722469 -5.122025 3.470067 -18.590501 -11.033527 -15.046336 -1.494850 -0.000002 -0.000003 -0.000000 0.000002 0.000000 -31.342700 -6.525377 -31.312603 60.739001 -11.035746 -7.572830 -18.098956 -3.939832 20.875983 -2.394887 0.000007 0.000002 -0.000000 -0.000000 -0.000000 
